<svg width="49" height="48" viewBox="0 0 49 48" fill="none" xmlns="http://www.w3.org/2000/svg">
<g clip-path="url(#clip0_260_7218)">
<rect width="48" height="48" transform="translate(0.142822)" fill="white"/>
<path fill-rule="evenodd" clip-rule="evenodd" d="M30.1428 40.0001H26.1428V36.4651C25.3803 36.0248 24.7843 35.3452 24.4473 34.5317C24.1103 33.7182 24.0512 32.8162 24.2791 31.9657C24.507 31.1152 25.0092 30.3636 25.7078 29.8276C26.4064 29.2915 27.2623 29.001 28.1428 29.001C29.0234 29.001 29.8793 29.2915 30.5779 29.8276C31.2764 30.3636 31.7786 31.1152 32.0065 31.9657C32.2344 32.8162 32.1753 33.7182 31.8383 34.5317C31.5014 35.3452 30.9054 36.0248 30.1428 36.4651V40.0001ZM28.1428 35.0001C28.6733 35.0001 29.182 34.7894 29.557 34.4143C29.9321 34.0392 30.1428 33.5305 30.1428 33.0001C30.1428 32.4696 29.9321 31.9609 29.557 31.5859C29.182 31.2108 28.6733 31.0001 28.1428 31.0001C27.6124 31.0001 27.1037 31.2108 26.7286 31.5859C26.3535 31.9609 26.1428 32.4696 26.1428 33.0001C26.1428 33.5305 26.3535 34.0392 26.7286 34.4143C27.1037 34.7894 27.6124 35.0001 28.1428 35.0001Z" fill="black"/>
<path d="M18.1428 11C18.1428 10.7348 18.2482 10.4804 18.4357 10.2929C18.6233 10.1054 18.8776 10 19.1428 10H29.1428C29.408 10 29.6624 10.1054 29.8499 10.2929C30.0375 10.4804 30.1428 10.7348 30.1428 11C30.1428 11.2652 30.0375 11.5196 29.8499 11.7071C29.6624 11.8946 29.408 12 29.1428 12H19.1428C18.8776 12 18.6233 11.8946 18.4357 11.7071C18.2482 11.5196 18.1428 11.2652 18.1428 11ZM15.1428 16C14.8776 16 14.6233 16.1054 14.4357 16.2929C14.2482 16.4804 14.1428 16.7348 14.1428 17C14.1428 17.2652 14.2482 17.5196 14.4357 17.7071C14.6233 17.8946 14.8776 18 15.1428 18H33.1428C33.408 18 33.6624 17.8946 33.8499 17.7071C34.0375 17.5196 34.1428 17.2652 34.1428 17C34.1428 16.7348 34.0375 16.4804 33.8499 16.2929C33.6624 16.1054 33.408 16 33.1428 16H15.1428ZM14.1428 21C14.1428 20.7348 14.2482 20.4804 14.4357 20.2929C14.6233 20.1054 14.8776 20 15.1428 20H33.1428C33.408 20 33.6624 20.1054 33.8499 20.2929C34.0375 20.4804 34.1428 20.7348 34.1428 21C34.1428 21.2652 34.0375 21.5196 33.8499 21.7071C33.6624 21.8946 33.408 22 33.1428 22H15.1428C14.8776 22 14.6233 21.8946 14.4357 21.7071C14.2482 21.5196 14.1428 21.2652 14.1428 21ZM15.1428 24C14.8776 24 14.6233 24.1054 14.4357 24.2929C14.2482 24.4804 14.1428 24.7348 14.1428 25C14.1428 25.2652 14.2482 25.5196 14.4357 25.7071C14.6233 25.8946 14.8776 26 15.1428 26H33.1428C33.408 26 33.6624 25.8946 33.8499 25.7071C34.0375 25.5196 34.1428 25.2652 34.1428 25C34.1428 24.7348 34.0375 24.4804 33.8499 24.2929C33.6624 24.1054 33.408 24 33.1428 24H15.1428Z" fill="black"/>
<path fill-rule="evenodd" clip-rule="evenodd" d="M0.142822 0H48.1428V48H0.142822V0ZM10.1428 7V37C10.1428 37.7957 10.4589 38.5587 11.0215 39.1213C11.5841 39.6839 12.3472 40 13.1428 40H26.1428V44L28.1428 42.5L30.1428 44V40H35.1428C35.9385 40 36.7015 39.6839 37.2641 39.1213C37.8268 38.5587 38.1428 37.7957 38.1428 37V7C38.1428 6.20435 37.8268 5.44129 37.2641 4.87868C36.7015 4.31607 35.9385 4 35.1428 4H13.1428C12.3472 4 11.5841 4.31607 11.0215 4.87868C10.4589 5.44129 10.1428 6.20435 10.1428 7Z" fill="black"/>
</g>
<defs>
<clipPath id="clip0_260_7218">
<rect width="48" height="48" fill="white" transform="translate(0.142822)"/>
</clipPath>
</defs>
</svg>
