<svg width="55" height="58" viewBox="0 0 55 58" fill="none" xmlns="http://www.w3.org/2000/svg">
<path d="M48.8889 0.5H6.11111C2.71944 0.5 0 2.94286 0 5.92857V43.9286C0 46.9143 2.71944 49.3571 6.11111 49.3571H18.3333L27.5 57.5L36.6667 49.3571H48.8889C52.25 49.3571 55 46.9143 55 43.9286V5.92857C55 2.94286 52.25 0.5 48.8889 0.5ZM30.5556 43.9286H24.4444V38.5H30.5556V43.9286ZM36.8806 22.8929L34.1306 25.39C31.9306 27.3714 30.5556 29 30.5556 33.0714H24.4444V31.7143C24.4444 28.7286 25.8194 26.0143 28.0194 24.0329L31.8083 20.6129C32.9389 19.6357 33.6111 18.2786 33.6111 16.7857C33.6111 13.8 30.8611 11.3571 27.5 11.3571C24.1389 11.3571 21.3889 13.8 21.3889 16.7857H15.2778C15.2778 10.7871 20.7472 5.92857 27.5 5.92857C34.2528 5.92857 39.7222 10.7871 39.7222 16.7857C39.7222 19.1743 38.6222 21.3457 36.8806 22.8929Z" fill="black"/>
</svg>
