<svg width="175" height="38" viewBox="0 0 175 38" fill="none" xmlns="http://www.w3.org/2000/svg">
<g clip-path="url(#clip0_260_7107)">
<path d="M59.6891 10.6854H56.1607V32.7916H53.1713C51.1131 32.7916 49.2999 31.8541 49.2999 29.1895V10.7347H42.145V8.26752C42.145 6.73785 43.4682 4.91211 46.0165 4.91211H63.5606V7.32998C63.5606 8.90899 61.7964 10.6854 59.6891 10.6854ZM72.8717 33.3837C66.4029 33.3837 62.9235 30.2257 62.9235 23.7616V12.7085H65.6188C68.6082 12.7085 69.9314 13.7447 69.9314 16.8041V23.959C69.9314 26.9196 71.3035 27.8078 73.2147 27.8078C74.8319 27.8078 76.1551 26.8703 76.1551 23.6629V12.7085H78.8504C81.5947 12.7085 83.1139 13.8928 83.1139 16.8041V23.959C83.0649 30.3737 78.9974 33.3837 72.8717 33.3837ZM98.3548 17.8896C97.4727 17.5442 96.8356 17.4949 95.9045 17.4949C94.2383 17.4949 92.9151 18.3337 92.9151 20.801V32.7916H91.0529C88.0635 32.7916 86.2503 31.41 86.2503 28.0546V19.3206C86.2503 15.2744 88.9456 12.067 93.5032 12.067C96.9336 12.067 98.5508 13.498 98.5508 15.3731V17.939H98.3548V17.8896ZM116.928 32.7916C113.89 32.7916 112.959 31.7554 112.959 28.696V21.6398C112.959 18.9259 112.076 17.7416 109.724 17.7416C107.715 17.7416 106.637 19.0739 106.637 21.5411V32.7916H104.333C101.393 32.7916 99.7759 31.6073 99.7759 28.696V21.6398C99.7759 15.8665 103.598 12.1164 109.92 12.1164C116.977 12.1164 119.868 15.8665 119.868 21.8372V32.7916H116.928ZM132.218 25.2419H129.228C129.621 27.2651 131.238 28.2026 134.129 28.2026C137.314 28.2026 139.324 27.7091 140.451 26.9196H140.696V28.548C140.696 31.1139 138.638 33.3837 132.953 33.3837C126.092 33.3837 122.466 28.696 122.466 23.1695C122.466 17.0508 126.582 12.1164 132.708 12.1164C137.952 12.1164 141.97 15.077 141.97 20.1595C141.97 24.1564 138.932 25.2419 132.218 25.2419ZM132.659 17.2482C130.209 17.2482 129.228 18.8272 129.032 20.7516H131.728C135.011 20.7516 135.55 20.2582 135.55 19.37C135.55 18.3831 134.668 17.2482 132.659 17.2482ZM157.407 17.8896C156.525 17.5442 155.888 17.4949 154.957 17.4949C153.29 17.4949 151.967 18.3337 151.967 20.801V32.7916H150.105C147.116 32.7916 145.302 31.41 145.302 28.0546V19.3206C145.302 15.2744 147.998 12.067 152.555 12.067C155.986 12.067 157.603 13.498 157.603 15.3731V17.939H157.407V17.8896ZM166.179 33.3837C160.739 33.3837 158.779 31.3606 158.779 28.4493V26.4262H158.975C160.298 27.4131 162.258 28.2026 165.101 28.2026C167.6 28.2026 168.384 27.6105 168.384 26.6236C168.384 25.7354 167.894 25.3406 163.778 24.7485C160.2 24.2551 158.289 22.5773 158.289 19.37C158.289 14.5342 162.798 12.1164 167.404 12.1164C171.815 12.1164 174.51 13.8928 174.51 16.9028V18.9752H174.314C172.991 17.9883 170.883 17.2975 168.188 17.2975C165.591 17.2975 164.758 17.9883 164.758 18.8272C164.758 19.6167 165.199 19.8634 169.364 20.5542C172.697 21.097 174.951 22.9228 174.951 26.3275C175 30.6205 171.668 33.3837 166.179 33.3837Z" fill="#0076BE"/>
<path d="M18.4752 37.5781C28.6788 37.5781 36.9504 29.2494 36.9504 18.9753C36.9504 8.70131 28.6788 0.372559 18.4752 0.372559C8.27164 0.372559 0 8.70131 0 18.9753C0 29.2494 8.27164 37.5781 18.4752 37.5781Z" fill="#B71234"/>
<path d="M21.3176 15.9655C23.1308 8.61319 23.7679 6.34336 20.8275 5.65254C16.9071 4.715 15.3879 11.7712 14.7018 16.5576C14.0647 16.5576 13.4766 16.5576 12.6925 16.5083C9.70319 16.3602 7.69395 15.8668 6.22377 17.8406C4.85161 19.7156 8.18401 21.0479 14.2607 20.2584C13.5256 28.6963 16.417 31.5089 18.5733 31.7556C22.7388 32.1997 28.9625 23.4165 28.9625 23.4165C28.9625 23.4165 23.7679 28.5976 21.5136 28.5976C19.1613 28.5976 19.3573 24.8474 20.2395 19.8637C20.3375 19.5676 20.4355 19.2222 20.5335 18.9261C26.8552 17.3965 27.0513 17.2484 28.3744 17.3471C29.4526 17.4458 29.8446 17.2978 29.9426 16.903C30.0896 15.8668 27.7864 15.3734 21.3176 15.9655Z" fill="white"/>
</g>
<defs>
<clipPath id="clip0_260_7107">
<rect width="175" height="37.2549" fill="white" transform="translate(0 0.372559)"/>
</clipPath>
</defs>
</svg>
